# xmcd
#
# Track frame offsets:
#	150
#	16357
#	29855
#	46897
#	62837
#	77587
#	88405
#	98155
#	107537
#	118802
#	128815
#	140632
#	154265
#	167732
#	180520
#	192360
#	205967
#	216882
#	227422
#	244785
#	269060
#
# Disc length: 3766 seconds
#
# Revision: 1
# Processed by: cddbd v1.5.2PL0 Copyright (c) Steve Scherf et al.
# Submitted via: EasyCDDAExtractor 6.2.0.3
#
DISCID=330eb415
DTITLE=Various Artist - A Man In Love - Classic Soul Jewelry 2
DYEAR=1990
DGENRE=Soul
TTITLE0=George Perkins - Baby You Saved Me
TTITLE1=George Perkins - A Man In Love
TTITLE2=George Perkins - When You Try To Use A Good Man
TTITLE3=George Perkins - How Sweet It Would Be
TTITLE4=Eddie Giles - Losin' Boy
TTITLE5=Eddie Giles - Happy Man
TTITLE6=Eddie Giles - Ain't Gonna Worry No More
TTITLE7=Eddie Giles - Baby, Be Mine
TTITLE8=Joe Perkins - I'm Not Gonna Leave
TTITLE9=Joe Perkins - Until You Were Gone
TTITLE10=Joe Perkins - Your Love Fits Me Like A Glove
TTITLE11=Joe Perkins - I Know What You're Up To
TTITLE12=Joe Perkins - Wrapped Up In Your Love
TTITLE13=Joe Perkins - Looking For A Woman
TTITLE14=Tommy Ridgely - I'm Not The Same Person
TTITLE15=Tommy Ridgely - I'm Asking Forgiveness
TTITLE16=Johnny Adams - Cold Cold Heart
TTITLE17=Johnny Adams - Comin' Around The Mountain
TTITLE18=Clarence Carter - I Couldn't Refuse
TTITLE19=Clarence Carter - What Was I Supposed To Do
TTITLE20=Clarence Carter - Slip Away Again
EXTD=
EXTT0=
EXTT1=
EXTT2=
EXTT3=
EXTT4=
EXTT5=
EXTT6=
EXTT7=
EXTT8=
EXTT9=
EXTT10=
EXTT11=
EXTT12=
EXTT13=
EXTT14=
EXTT15=
EXTT16=
EXTT17=
EXTT18=
EXTT19=
EXTT20=
PLAYORDER=
